<?xml version="1.0" encoding="UTF-8" standalone="no"?>
<!DOCTYPE svg PUBLIC "-//W3C//DTD SVG 1.1//EN"
 "http://www.w3.org/Graphics/SVG/1.1/DTD/svg11.dtd">
<!-- Generated by graphviz version 6.0.2 (20221011.1828)
 -->
<!-- Pages: 1 -->
<svg width="1192pt" height="692pt"
 viewBox="0.00 0.00 1192.27 692.00" xmlns="http://www.w3.org/2000/svg" xmlns:xlink="http://www.w3.org/1999/xlink">
<g id="graph0" class="graph" transform="scale(1 1) rotate(0) translate(4 688)">
<polygon fill="white" stroke="none" points="-4,4 -4,-688 1188.27,-688 1188.27,4 -4,4"/>
<!-- [root] aws_autoscaling_group.skill_check (expand) -->
<g id="node1" class="node">
<title>[root] aws_autoscaling_group.skill_check (expand)</title>
<polygon fill="none" stroke="black" points="916.27,-396 707.27,-396 707.27,-360 916.27,-360 916.27,-396"/>
<text text-anchor="middle" x="811.77" y="-374.3" font-family="Times,serif" font-size="14.00">aws_autoscaling_group.skill_check</text>
</g>
<!-- [root] aws_elb.dev_elb (expand) -->
<g id="node7" class="node">
<title>[root] aws_elb.dev_elb (expand)</title>
<polygon fill="none" stroke="black" points="865.27,-324 758.27,-324 758.27,-288 865.27,-288 865.27,-324"/>
<text text-anchor="middle" x="811.77" y="-302.3" font-family="Times,serif" font-size="14.00">aws_elb.dev_elb</text>
</g>
<!-- [root] aws_autoscaling_group.skill_check (expand)&#45;&gt;[root] aws_elb.dev_elb (expand) -->
<g id="edge1" class="edge">
<title>[root] aws_autoscaling_group.skill_check (expand)&#45;&gt;[root] aws_elb.dev_elb (expand)</title>
<path fill="none" stroke="black" d="M811.77,-359.7C811.77,-351.98 811.77,-342.71 811.77,-334.11"/>
<polygon fill="black" stroke="black" points="815.27,-334.1 811.77,-324.1 808.27,-334.1 815.27,-334.1"/>
</g>
<!-- [root] aws_launch_configuration.skill_check (expand) -->
<g id="node10" class="node">
<title>[root] aws_launch_configuration.skill_check (expand)</title>
<polygon fill="none" stroke="black" points="1138.27,-324 913.27,-324 913.27,-288 1138.27,-288 1138.27,-324"/>
<text text-anchor="middle" x="1025.77" y="-302.3" font-family="Times,serif" font-size="14.00">aws_launch_configuration.skill_check</text>
</g>
<!-- [root] aws_autoscaling_group.skill_check (expand)&#45;&gt;[root] aws_launch_configuration.skill_check (expand) -->
<g id="edge2" class="edge">
<title>[root] aws_autoscaling_group.skill_check (expand)&#45;&gt;[root] aws_launch_configuration.skill_check (expand)</title>
<path fill="none" stroke="black" d="M863.84,-359.97C894.01,-350.1 932.15,-337.62 963.85,-327.25"/>
<polygon fill="black" stroke="black" points="965.04,-330.55 973.46,-324.11 962.87,-323.89 965.04,-330.55"/>
</g>
<!-- [root] aws_subnet.private_1a (expand) -->
<g id="node20" class="node">
<title>[root] aws_subnet.private_1a (expand)</title>
<polygon fill="none" stroke="black" points="739.77,-324 599.77,-324 599.77,-288 739.77,-288 739.77,-324"/>
<text text-anchor="middle" x="669.77" y="-302.3" font-family="Times,serif" font-size="14.00">aws_subnet.private_1a</text>
</g>
<!-- [root] aws_autoscaling_group.skill_check (expand)&#45;&gt;[root] aws_subnet.private_1a (expand) -->
<g id="edge3" class="edge">
<title>[root] aws_autoscaling_group.skill_check (expand)&#45;&gt;[root] aws_subnet.private_1a (expand)</title>
<path fill="none" stroke="black" d="M777.03,-359.88C757.95,-350.47 734.09,-338.71 713.72,-328.67"/>
<polygon fill="black" stroke="black" points="715.16,-325.47 704.64,-324.19 712.06,-331.75 715.16,-325.47"/>
</g>
<!-- [root] aws_autoscaling_policy.skill_check_scale_in (expand) -->
<g id="node2" class="node">
<title>[root] aws_autoscaling_policy.skill_check_scale_in (expand)</title>
<polygon fill="none" stroke="black" points="878.77,-468 616.77,-468 616.77,-432 878.77,-432 878.77,-468"/>
<text text-anchor="middle" x="747.77" y="-446.3" font-family="Times,serif" font-size="14.00">aws_autoscaling_policy.skill_check_scale_in</text>
</g>
<!-- [root] aws_autoscaling_policy.skill_check_scale_in (expand)&#45;&gt;[root] aws_autoscaling_group.skill_check (expand) -->
<g id="edge4" class="edge">
<title>[root] aws_autoscaling_policy.skill_check_scale_in (expand)&#45;&gt;[root] aws_autoscaling_group.skill_check (expand)</title>
<path fill="none" stroke="black" d="M763.59,-431.7C771.34,-423.22 780.81,-412.86 789.29,-403.58"/>
<polygon fill="black" stroke="black" points="791.97,-405.85 796.13,-396.1 786.8,-401.12 791.97,-405.85"/>
</g>
<!-- [root] aws_autoscaling_policy.skill_check_scale_out (expand) -->
<g id="node3" class="node">
<title>[root] aws_autoscaling_policy.skill_check_scale_out (expand)</title>
<polygon fill="none" stroke="black" points="1173.27,-468 904.27,-468 904.27,-432 1173.27,-432 1173.27,-468"/>
<text text-anchor="middle" x="1038.77" y="-446.3" font-family="Times,serif" font-size="14.00">aws_autoscaling_policy.skill_check_scale_out</text>
</g>
<!-- [root] aws_autoscaling_policy.skill_check_scale_out (expand)&#45;&gt;[root] aws_autoscaling_group.skill_check (expand) -->
<g id="edge5" class="edge">
<title>[root] aws_autoscaling_policy.skill_check_scale_out (expand)&#45;&gt;[root] aws_autoscaling_group.skill_check (expand)</title>
<path fill="none" stroke="black" d="M983.53,-431.97C951.4,-422.06 910.72,-409.51 877.02,-399.12"/>
<polygon fill="black" stroke="black" points="877.84,-395.71 867.26,-396.11 875.78,-402.4 877.84,-395.71"/>
</g>
<!-- [root] aws_cloudwatch_metric_alarm.skill_check_high (expand) -->
<g id="node4" class="node">
<title>[root] aws_cloudwatch_metric_alarm.skill_check_high (expand)</title>
<polygon fill="none" stroke="black" points="1184.27,-540 901.27,-540 901.27,-504 1184.27,-504 1184.27,-540"/>
<text text-anchor="middle" x="1042.77" y="-518.3" font-family="Times,serif" font-size="14.00">aws_cloudwatch_metric_alarm.skill_check_high</text>
</g>
<!-- [root] aws_cloudwatch_metric_alarm.skill_check_high (expand)&#45;&gt;[root] aws_autoscaling_policy.skill_check_scale_out (expand) -->
<g id="edge6" class="edge">
<title>[root] aws_cloudwatch_metric_alarm.skill_check_high (expand)&#45;&gt;[root] aws_autoscaling_policy.skill_check_scale_out (expand)</title>
<path fill="none" stroke="black" d="M1041.78,-503.7C1041.34,-495.98 1040.81,-486.71 1040.32,-478.11"/>
<polygon fill="black" stroke="black" points="1043.81,-477.89 1039.75,-468.1 1036.82,-478.29 1043.81,-477.89"/>
</g>
<!-- [root] aws_cloudwatch_metric_alarm.skill_check_low (expand) -->
<g id="node5" class="node">
<title>[root] aws_cloudwatch_metric_alarm.skill_check_low (expand)</title>
<polygon fill="none" stroke="black" points="883.27,-540 604.27,-540 604.27,-504 883.27,-504 883.27,-540"/>
<text text-anchor="middle" x="743.77" y="-518.3" font-family="Times,serif" font-size="14.00">aws_cloudwatch_metric_alarm.skill_check_low</text>
</g>
<!-- [root] aws_cloudwatch_metric_alarm.skill_check_low (expand)&#45;&gt;[root] aws_autoscaling_policy.skill_check_scale_in (expand) -->
<g id="edge7" class="edge">
<title>[root] aws_cloudwatch_metric_alarm.skill_check_low (expand)&#45;&gt;[root] aws_autoscaling_policy.skill_check_scale_in (expand)</title>
<path fill="none" stroke="black" d="M744.76,-503.7C745.2,-495.98 745.73,-486.71 746.22,-478.11"/>
<polygon fill="black" stroke="black" points="749.71,-478.29 746.79,-468.1 742.73,-477.89 749.71,-478.29"/>
</g>
<!-- [root] aws_eip.nat_1a (expand) -->
<g id="node6" class="node">
<title>[root] aws_eip.nat_1a (expand)</title>
<polygon fill="none" stroke="black" points="303.27,-180 202.27,-180 202.27,-144 303.27,-144 303.27,-180"/>
<text text-anchor="middle" x="252.77" y="-158.3" font-family="Times,serif" font-size="14.00">aws_eip.nat_1a</text>
</g>
<!-- [root] provider[&quot;registry.terraform.io/hashicorp/aws&quot;] -->
<g id="node23" class="node">
<title>[root] provider[&quot;registry.terraform.io/hashicorp/aws&quot;]</title>
<polygon fill="none" stroke="black" points="252.77,-108 0.23,-90 252.77,-72 505.3,-90 252.77,-108"/>
<text text-anchor="middle" x="252.77" y="-86.3" font-family="Times,serif" font-size="14.00">provider[&quot;registry.terraform.io/hashicorp/aws&quot;]</text>
</g>
<!-- [root] aws_eip.nat_1a (expand)&#45;&gt;[root] provider[&quot;registry.terraform.io/hashicorp/aws&quot;] -->
<g id="edge8" class="edge">
<title>[root] aws_eip.nat_1a (expand)&#45;&gt;[root] provider[&quot;registry.terraform.io/hashicorp/aws&quot;]</title>
<path fill="none" stroke="black" d="M252.77,-143.7C252.77,-135.98 252.77,-126.71 252.77,-118.11"/>
<polygon fill="black" stroke="black" points="256.27,-118.1 252.77,-108.1 249.27,-118.1 256.27,-118.1"/>
</g>
<!-- [root] aws_security_group.http (expand) -->
<g id="node16" class="node">
<title>[root] aws_security_group.http (expand)</title>
<polygon fill="none" stroke="black" points="803.77,-252 653.77,-252 653.77,-216 803.77,-216 803.77,-252"/>
<text text-anchor="middle" x="728.77" y="-230.3" font-family="Times,serif" font-size="14.00">aws_security_group.http</text>
</g>
<!-- [root] aws_elb.dev_elb (expand)&#45;&gt;[root] aws_security_group.http (expand) -->
<g id="edge9" class="edge">
<title>[root] aws_elb.dev_elb (expand)&#45;&gt;[root] aws_security_group.http (expand)</title>
<path fill="none" stroke="black" d="M791.25,-287.7C780.9,-278.97 768.18,-268.24 756.93,-258.75"/>
<polygon fill="black" stroke="black" points="758.95,-255.88 749.05,-252.1 754.44,-261.23 758.95,-255.88"/>
</g>
<!-- [root] aws_security_group.internal (expand) -->
<g id="node17" class="node">
<title>[root] aws_security_group.internal (expand)</title>
<polygon fill="none" stroke="black" points="991.77,-252 821.77,-252 821.77,-216 991.77,-216 991.77,-252"/>
<text text-anchor="middle" x="906.77" y="-230.3" font-family="Times,serif" font-size="14.00">aws_security_group.internal</text>
</g>
<!-- [root] aws_elb.dev_elb (expand)&#45;&gt;[root] aws_security_group.internal (expand) -->
<g id="edge10" class="edge">
<title>[root] aws_elb.dev_elb (expand)&#45;&gt;[root] aws_security_group.internal (expand)</title>
<path fill="none" stroke="black" d="M835.25,-287.7C847.33,-278.8 862.22,-267.82 875.28,-258.2"/>
<polygon fill="black" stroke="black" points="877.58,-260.85 883.56,-252.1 873.43,-255.22 877.58,-260.85"/>
</g>
<!-- [root] aws_subnet.public_1a (expand) -->
<g id="node21" class="node">
<title>[root] aws_subnet.public_1a (expand)</title>
<polygon fill="none" stroke="black" points="597.27,-252 460.27,-252 460.27,-216 597.27,-216 597.27,-252"/>
<text text-anchor="middle" x="528.77" y="-230.3" font-family="Times,serif" font-size="14.00">aws_subnet.public_1a</text>
</g>
<!-- [root] aws_elb.dev_elb (expand)&#45;&gt;[root] aws_subnet.public_1a (expand) -->
<g id="edge11" class="edge">
<title>[root] aws_elb.dev_elb (expand)&#45;&gt;[root] aws_subnet.public_1a (expand)</title>
<path fill="none" stroke="black" d="M758.18,-290.43C755,-289.6 751.84,-288.78 748.77,-288 702.07,-276.08 649.62,-263.41 607.64,-253.45"/>
<polygon fill="black" stroke="black" points="608.29,-250.01 597.75,-251.11 606.68,-256.82 608.29,-250.01"/>
</g>
<!-- [root] aws_instance.app_server (expand) -->
<g id="node8" class="node">
<title>[root] aws_instance.app_server (expand)</title>
<polygon fill="none" stroke="black" points="175.77,-180 23.77,-180 23.77,-144 175.77,-144 175.77,-180"/>
<text text-anchor="middle" x="99.77" y="-158.3" font-family="Times,serif" font-size="14.00">aws_instance.app_server</text>
</g>
<!-- [root] aws_instance.app_server (expand)&#45;&gt;[root] provider[&quot;registry.terraform.io/hashicorp/aws&quot;] -->
<g id="edge12" class="edge">
<title>[root] aws_instance.app_server (expand)&#45;&gt;[root] provider[&quot;registry.terraform.io/hashicorp/aws&quot;]</title>
<path fill="none" stroke="black" d="M137.2,-143.88C159.59,-133.63 188.09,-120.59 211.18,-110.03"/>
<polygon fill="black" stroke="black" points="212.75,-113.16 220.39,-105.81 209.84,-106.79 212.75,-113.16"/>
</g>
<!-- [root] aws_internet_gateway.igw (expand) -->
<g id="node9" class="node">
<title>[root] aws_internet_gateway.igw (expand)</title>
<polygon fill="none" stroke="black" points="442.27,-252 281.27,-252 281.27,-216 442.27,-216 442.27,-252"/>
<text text-anchor="middle" x="361.77" y="-230.3" font-family="Times,serif" font-size="14.00">aws_internet_gateway.igw</text>
</g>
<!-- [root] aws_vpc.vpc (expand) -->
<g id="node22" class="node">
<title>[root] aws_vpc.vpc (expand)</title>
<polygon fill="none" stroke="black" points="490.27,-180 403.27,-180 403.27,-144 490.27,-144 490.27,-180"/>
<text text-anchor="middle" x="446.77" y="-158.3" font-family="Times,serif" font-size="14.00">aws_vpc.vpc</text>
</g>
<!-- [root] aws_internet_gateway.igw (expand)&#45;&gt;[root] aws_vpc.vpc (expand) -->
<g id="edge13" class="edge">
<title>[root] aws_internet_gateway.igw (expand)&#45;&gt;[root] aws_vpc.vpc (expand)</title>
<path fill="none" stroke="black" d="M382.78,-215.7C393.48,-206.88 406.66,-196.03 418.26,-186.47"/>
<polygon fill="black" stroke="black" points="420.5,-189.16 426,-180.1 416.05,-183.76 420.5,-189.16"/>
</g>
<!-- [root] aws_launch_configuration.skill_check (expand)&#45;&gt;[root] aws_security_group.internal (expand) -->
<g id="edge14" class="edge">
<title>[root] aws_launch_configuration.skill_check (expand)&#45;&gt;[root] aws_security_group.internal (expand)</title>
<path fill="none" stroke="black" d="M996.66,-287.88C981.1,-278.72 961.75,-267.34 944.99,-257.48"/>
<polygon fill="black" stroke="black" points="946.38,-254.24 935.99,-252.19 942.84,-260.28 946.38,-254.24"/>
</g>
<!-- [root] var.ami -->
<g id="node25" class="node">
<title>[root] var.ami</title>
<polygon fill="none" stroke="black" points="1173.77,-252 1121.77,-252 1121.77,-216 1179.77,-216 1179.77,-246 1173.77,-252"/>
<polyline fill="none" stroke="black" points="1173.77,-252 1173.77,-246"/>
<polyline fill="none" stroke="black" points="1179.77,-246 1173.77,-246"/>
<text text-anchor="middle" x="1150.77" y="-230.3" font-family="Times,serif" font-size="14.00">var.ami</text>
</g>
<!-- [root] aws_launch_configuration.skill_check (expand)&#45;&gt;[root] var.ami -->
<g id="edge15" class="edge">
<title>[root] aws_launch_configuration.skill_check (expand)&#45;&gt;[root] var.ami</title>
<path fill="none" stroke="black" d="M1056.35,-287.88C1073.21,-278.43 1094.31,-266.61 1112.29,-256.55"/>
<polygon fill="black" stroke="black" points="1114.35,-259.4 1121.37,-251.47 1110.93,-253.3 1114.35,-259.4"/>
</g>
<!-- [root] var.key_name -->
<g id="node26" class="node">
<title>[root] var.key_name</title>
<polygon fill="none" stroke="black" points="1097.27,-252 1010.27,-252 1010.27,-216 1103.27,-216 1103.27,-246 1097.27,-252"/>
<polyline fill="none" stroke="black" points="1097.27,-252 1097.27,-246"/>
<polyline fill="none" stroke="black" points="1103.27,-246 1097.27,-246"/>
<text text-anchor="middle" x="1056.77" y="-230.3" font-family="Times,serif" font-size="14.00">var.key_name</text>
</g>
<!-- [root] aws_launch_configuration.skill_check (expand)&#45;&gt;[root] var.key_name -->
<g id="edge16" class="edge">
<title>[root] aws_launch_configuration.skill_check (expand)&#45;&gt;[root] var.key_name</title>
<path fill="none" stroke="black" d="M1033.43,-287.7C1036.96,-279.73 1041.22,-270.1 1045.14,-261.26"/>
<polygon fill="black" stroke="black" points="1048.34,-262.67 1049.19,-252.1 1041.94,-259.83 1048.34,-262.67"/>
</g>
<!-- [root] aws_nat_gateway.nat_1a (expand) -->
<g id="node11" class="node">
<title>[root] aws_nat_gateway.nat_1a (expand)</title>
<polygon fill="none" stroke="black" points="367.77,-324 215.77,-324 215.77,-288 367.77,-288 367.77,-324"/>
<text text-anchor="middle" x="291.77" y="-302.3" font-family="Times,serif" font-size="14.00">aws_nat_gateway.nat_1a</text>
</g>
<!-- [root] aws_nat_gateway.nat_1a (expand)&#45;&gt;[root] aws_eip.nat_1a (expand) -->
<g id="edge17" class="edge">
<title>[root] aws_nat_gateway.nat_1a (expand)&#45;&gt;[root] aws_eip.nat_1a (expand)</title>
<path fill="none" stroke="black" d="M284.43,-287.56C280.31,-277.33 275.31,-264.08 271.77,-252 265.77,-231.57 260.82,-207.98 257.48,-190.22"/>
<polygon fill="black" stroke="black" points="260.9,-189.46 255.66,-180.25 254.01,-190.72 260.9,-189.46"/>
</g>
<!-- [root] aws_nat_gateway.nat_1a (expand)&#45;&gt;[root] aws_subnet.public_1a (expand) -->
<g id="edge18" class="edge">
<title>[root] aws_nat_gateway.nat_1a (expand)&#45;&gt;[root] aws_subnet.public_1a (expand)</title>
<path fill="none" stroke="black" d="M349.44,-287.97C383.13,-278.01 425.82,-265.41 461.1,-254.99"/>
<polygon fill="black" stroke="black" points="462.24,-258.3 470.84,-252.11 460.25,-251.59 462.24,-258.3"/>
</g>
<!-- [root] aws_route_table.nat_rt (expand) -->
<g id="node12" class="node">
<title>[root] aws_route_table.nat_rt (expand)</title>
<polygon fill="none" stroke="black" points="377.77,-396 237.77,-396 237.77,-360 377.77,-360 377.77,-396"/>
<text text-anchor="middle" x="307.77" y="-374.3" font-family="Times,serif" font-size="14.00">aws_route_table.nat_rt</text>
</g>
<!-- [root] aws_route_table.nat_rt (expand)&#45;&gt;[root] aws_nat_gateway.nat_1a (expand) -->
<g id="edge19" class="edge">
<title>[root] aws_route_table.nat_rt (expand)&#45;&gt;[root] aws_nat_gateway.nat_1a (expand)</title>
<path fill="none" stroke="black" d="M303.81,-359.7C302.05,-351.98 299.93,-342.71 297.97,-334.11"/>
<polygon fill="black" stroke="black" points="301.32,-333.07 295.68,-324.1 294.49,-334.63 301.32,-333.07"/>
</g>
<!-- [root] aws_route_table.public_rt (expand) -->
<g id="node13" class="node">
<title>[root] aws_route_table.public_rt (expand)</title>
<polygon fill="none" stroke="black" points="543.77,-324 385.77,-324 385.77,-288 543.77,-288 543.77,-324"/>
<text text-anchor="middle" x="464.77" y="-302.3" font-family="Times,serif" font-size="14.00">aws_route_table.public_rt</text>
</g>
<!-- [root] aws_route_table.public_rt (expand)&#45;&gt;[root] aws_internet_gateway.igw (expand) -->
<g id="edge20" class="edge">
<title>[root] aws_route_table.public_rt (expand)&#45;&gt;[root] aws_internet_gateway.igw (expand)</title>
<path fill="none" stroke="black" d="M439.57,-287.88C426.35,-278.89 409.98,-267.76 395.66,-258.03"/>
<polygon fill="black" stroke="black" points="397.3,-254.92 387.06,-252.19 393.37,-260.71 397.3,-254.92"/>
</g>
<!-- [root] aws_route_table_association.private_1a (expand) -->
<g id="node14" class="node">
<title>[root] aws_route_table_association.private_1a (expand)</title>
<polygon fill="none" stroke="black" points="547.27,-468 314.27,-468 314.27,-432 547.27,-432 547.27,-468"/>
<text text-anchor="middle" x="430.77" y="-446.3" font-family="Times,serif" font-size="14.00">aws_route_table_association.private_1a</text>
</g>
<!-- [root] aws_route_table_association.private_1a (expand)&#45;&gt;[root] aws_route_table.nat_rt (expand) -->
<g id="edge21" class="edge">
<title>[root] aws_route_table_association.private_1a (expand)&#45;&gt;[root] aws_route_table.nat_rt (expand)</title>
<path fill="none" stroke="black" d="M400.68,-431.88C384.45,-422.64 364.23,-411.13 346.8,-401.21"/>
<polygon fill="black" stroke="black" points="348.4,-398.09 337.97,-396.19 344.93,-404.18 348.4,-398.09"/>
</g>
<!-- [root] aws_route_table_association.private_1a (expand)&#45;&gt;[root] aws_subnet.private_1a (expand) -->
<g id="edge22" class="edge">
<title>[root] aws_route_table_association.private_1a (expand)&#45;&gt;[root] aws_subnet.private_1a (expand)</title>
<path fill="none" stroke="black" d="M547.3,-432.15C591.35,-423.5 634.54,-411.48 649.77,-396 665.6,-379.9 670,-354.12 670.79,-334.44"/>
<polygon fill="black" stroke="black" points="674.3,-334.28 670.91,-324.24 667.3,-334.2 674.3,-334.28"/>
</g>
<!-- [root] aws_route_table_association.public_1a (expand) -->
<g id="node15" class="node">
<title>[root] aws_route_table_association.public_1a (expand)</title>
<polygon fill="none" stroke="black" points="641.27,-396 412.27,-396 412.27,-360 641.27,-360 641.27,-396"/>
<text text-anchor="middle" x="526.77" y="-374.3" font-family="Times,serif" font-size="14.00">aws_route_table_association.public_1a</text>
</g>
<!-- [root] aws_route_table_association.public_1a (expand)&#45;&gt;[root] aws_route_table.public_rt (expand) -->
<g id="edge23" class="edge">
<title>[root] aws_route_table_association.public_1a (expand)&#45;&gt;[root] aws_route_table.public_rt (expand)</title>
<path fill="none" stroke="black" d="M511.44,-359.7C504.01,-351.3 494.94,-341.07 486.79,-331.86"/>
<polygon fill="black" stroke="black" points="489.17,-329.27 479.92,-324.1 483.93,-333.91 489.17,-329.27"/>
</g>
<!-- [root] aws_route_table_association.public_1a (expand)&#45;&gt;[root] aws_subnet.public_1a (expand) -->
<g id="edge24" class="edge">
<title>[root] aws_route_table_association.public_1a (expand)&#45;&gt;[root] aws_subnet.public_1a (expand)</title>
<path fill="none" stroke="black" d="M537.81,-359.61C543.5,-349.62 549.85,-336.58 552.77,-324 556.39,-308.41 556.14,-303.64 552.77,-288 550.81,-278.92 547.16,-269.52 543.28,-261.2"/>
<polygon fill="black" stroke="black" points="546.31,-259.42 538.72,-252.02 540.04,-262.53 546.31,-259.42"/>
</g>
<!-- [root] aws_security_group.http (expand)&#45;&gt;[root] aws_vpc.vpc (expand) -->
<g id="edge25" class="edge">
<title>[root] aws_security_group.http (expand)&#45;&gt;[root] aws_vpc.vpc (expand)</title>
<path fill="none" stroke="black" d="M660.14,-215.97C611.04,-203.78 545.86,-187.6 500.51,-176.34"/>
<polygon fill="black" stroke="black" points="501.13,-172.89 490.58,-173.88 499.44,-179.68 501.13,-172.89"/>
</g>
<!-- [root] aws_security_group.internal (expand)&#45;&gt;[root] aws_vpc.vpc (expand) -->
<g id="edge26" class="edge">
<title>[root] aws_security_group.internal (expand)&#45;&gt;[root] aws_vpc.vpc (expand)</title>
<path fill="none" stroke="black" d="M821.74,-217.48C818.71,-216.98 815.71,-216.48 812.77,-216 702.09,-197.98 572.06,-179.88 500.61,-170.2"/>
<polygon fill="black" stroke="black" points="500.89,-166.7 490.51,-168.83 499.95,-173.64 500.89,-166.7"/>
</g>
<!-- [root] aws_security_group.nat (expand) -->
<g id="node18" class="node">
<title>[root] aws_security_group.nat (expand)</title>
<polygon fill="none" stroke="black" points="295.77,-468 149.77,-468 149.77,-432 295.77,-432 295.77,-468"/>
<text text-anchor="middle" x="222.77" y="-446.3" font-family="Times,serif" font-size="14.00">aws_security_group.nat</text>
</g>
<!-- [root] aws_security_group.nat (expand)&#45;&gt;[root] aws_vpc.vpc (expand) -->
<g id="edge27" class="edge">
<title>[root] aws_security_group.nat (expand)&#45;&gt;[root] aws_vpc.vpc (expand)</title>
<path fill="none" stroke="black" d="M216.14,-431.87C205.51,-401.69 187.71,-337.55 206.77,-288 235.4,-213.55 331.64,-182.87 393.2,-170.65"/>
<polygon fill="black" stroke="black" points="393.96,-174.07 403.14,-168.78 392.66,-167.19 393.96,-174.07"/>
</g>
<!-- [root] aws_security_group.ssh (expand) -->
<g id="node19" class="node">
<title>[root] aws_security_group.ssh (expand)</title>
<polygon fill="none" stroke="black" points="284.77,-540 138.77,-540 138.77,-504 284.77,-504 284.77,-540"/>
<text text-anchor="middle" x="211.77" y="-518.3" font-family="Times,serif" font-size="14.00">aws_security_group.ssh</text>
</g>
<!-- [root] aws_security_group.ssh (expand)&#45;&gt;[root] aws_vpc.vpc (expand) -->
<g id="edge28" class="edge">
<title>[root] aws_security_group.ssh (expand)&#45;&gt;[root] aws_vpc.vpc (expand)</title>
<path fill="none" stroke="black" d="M179.2,-503.8C165.34,-494.89 150.23,-482.76 140.77,-468 118.94,-433.95 121.77,-419.45 121.77,-379 121.77,-379 121.77,-379 121.77,-305 121.77,-244.16 171.57,-243.64 225.77,-216 279.03,-188.84 346.68,-175.26 393.01,-168.7"/>
<polygon fill="black" stroke="black" points="393.7,-172.14 403.14,-167.33 392.77,-165.21 393.7,-172.14"/>
</g>
<!-- [root] aws_subnet.private_1a (expand)&#45;&gt;[root] aws_vpc.vpc (expand) -->
<g id="edge29" class="edge">
<title>[root] aws_subnet.private_1a (expand)&#45;&gt;[root] aws_vpc.vpc (expand)</title>
<path fill="none" stroke="black" d="M661.59,-287.76C651.27,-267.75 631.67,-235.07 605.77,-216 574.66,-193.1 533.05,-179.7 500.2,-172.1"/>
<polygon fill="black" stroke="black" points="500.83,-168.65 490.31,-169.92 499.33,-175.49 500.83,-168.65"/>
</g>
<!-- [root] aws_subnet.public_1a (expand)&#45;&gt;[root] aws_vpc.vpc (expand) -->
<g id="edge30" class="edge">
<title>[root] aws_subnet.public_1a (expand)&#45;&gt;[root] aws_vpc.vpc (expand)</title>
<path fill="none" stroke="black" d="M508.5,-215.7C498.27,-206.97 485.71,-196.24 474.59,-186.75"/>
<polygon fill="black" stroke="black" points="476.68,-183.94 466.8,-180.1 472.14,-189.26 476.68,-183.94"/>
</g>
<!-- [root] aws_vpc.vpc (expand)&#45;&gt;[root] provider[&quot;registry.terraform.io/hashicorp/aws&quot;] -->
<g id="edge31" class="edge">
<title>[root] aws_vpc.vpc (expand)&#45;&gt;[root] provider[&quot;registry.terraform.io/hashicorp/aws&quot;]</title>
<path fill="none" stroke="black" d="M403.23,-145.29C373.19,-134.45 333.2,-120.02 302,-108.76"/>
<polygon fill="black" stroke="black" points="302.8,-105.33 292.2,-105.23 300.42,-111.92 302.8,-105.33"/>
</g>
<!-- [root] var.access_key -->
<g id="node24" class="node">
<title>[root] var.access_key</title>
<polygon fill="none" stroke="black" points="192.77,-36 100.77,-36 100.77,0 198.77,0 198.77,-30 192.77,-36"/>
<polyline fill="none" stroke="black" points="192.77,-36 192.77,-30"/>
<polyline fill="none" stroke="black" points="198.77,-30 192.77,-30"/>
<text text-anchor="middle" x="149.77" y="-14.3" font-family="Times,serif" font-size="14.00">var.access_key</text>
</g>
<!-- [root] provider[&quot;registry.terraform.io/hashicorp/aws&quot;]&#45;&gt;[root] var.access_key -->
<g id="edge39" class="edge">
<title>[root] provider[&quot;registry.terraform.io/hashicorp/aws&quot;]&#45;&gt;[root] var.access_key</title>
<path fill="none" stroke="black" d="M229.91,-73.46C216.33,-64.24 198.87,-52.37 183.71,-42.06"/>
<polygon fill="black" stroke="black" points="185.33,-38.94 175.09,-36.21 181.4,-44.73 185.33,-38.94"/>
</g>
<!-- [root] var.region -->
<g id="node27" class="node">
<title>[root] var.region</title>
<polygon fill="none" stroke="black" points="282.27,-36 217.27,-36 217.27,0 288.27,0 288.27,-30 282.27,-36"/>
<polyline fill="none" stroke="black" points="282.27,-36 282.27,-30"/>
<polyline fill="none" stroke="black" points="288.27,-30 282.27,-30"/>
<text text-anchor="middle" x="252.77" y="-14.3" font-family="Times,serif" font-size="14.00">var.region</text>
</g>
<!-- [root] provider[&quot;registry.terraform.io/hashicorp/aws&quot;]&#45;&gt;[root] var.region -->
<g id="edge40" class="edge">
<title>[root] provider[&quot;registry.terraform.io/hashicorp/aws&quot;]&#45;&gt;[root] var.region</title>
<path fill="none" stroke="black" d="M252.77,-71.7C252.77,-63.98 252.77,-54.71 252.77,-46.11"/>
<polygon fill="black" stroke="black" points="256.27,-46.1 252.77,-36.1 249.27,-46.1 256.27,-46.1"/>
</g>
<!-- [root] var.secret_key -->
<g id="node28" class="node">
<title>[root] var.secret_key</title>
<polygon fill="none" stroke="black" points="395.27,-36 306.27,-36 306.27,0 401.27,0 401.27,-30 395.27,-36"/>
<polyline fill="none" stroke="black" points="395.27,-36 395.27,-30"/>
<polyline fill="none" stroke="black" points="401.27,-30 395.27,-30"/>
<text text-anchor="middle" x="353.77" y="-14.3" font-family="Times,serif" font-size="14.00">var.secret_key</text>
</g>
<!-- [root] provider[&quot;registry.terraform.io/hashicorp/aws&quot;]&#45;&gt;[root] var.secret_key -->
<g id="edge41" class="edge">
<title>[root] provider[&quot;registry.terraform.io/hashicorp/aws&quot;]&#45;&gt;[root] var.secret_key</title>
<path fill="none" stroke="black" d="M275.18,-73.46C288.49,-64.24 305.62,-52.37 320.49,-42.06"/>
<polygon fill="black" stroke="black" points="322.71,-44.78 328.94,-36.21 318.72,-39.03 322.71,-44.78"/>
</g>
<!-- [root] provider[&quot;registry.terraform.io/hashicorp/aws&quot;] (close) -->
<g id="node29" class="node">
<title>[root] provider[&quot;registry.terraform.io/hashicorp/aws&quot;] (close)</title>
<ellipse fill="none" stroke="black" cx="430.77" cy="-594" rx="227.46" ry="18"/>
<text text-anchor="middle" x="430.77" y="-590.3" font-family="Times,serif" font-size="14.00">[root] provider[&quot;registry.terraform.io/hashicorp/aws&quot;] (close)</text>
</g>
<!-- [root] provider[&quot;registry.terraform.io/hashicorp/aws&quot;] (close)&#45;&gt;[root] aws_cloudwatch_metric_alarm.skill_check_high (expand) -->
<g id="edge32" class="edge">
<title>[root] provider[&quot;registry.terraform.io/hashicorp/aws&quot;] (close)&#45;&gt;[root] aws_cloudwatch_metric_alarm.skill_check_high (expand)</title>
<path fill="none" stroke="black" d="M554.25,-578.88C651.49,-567.75 787.5,-552.2 891.32,-540.32"/>
<polygon fill="black" stroke="black" points="891.73,-543.8 901.26,-539.19 890.93,-536.84 891.73,-543.8"/>
</g>
<!-- [root] provider[&quot;registry.terraform.io/hashicorp/aws&quot;] (close)&#45;&gt;[root] aws_cloudwatch_metric_alarm.skill_check_low (expand) -->
<g id="edge33" class="edge">
<title>[root] provider[&quot;registry.terraform.io/hashicorp/aws&quot;] (close)&#45;&gt;[root] aws_cloudwatch_metric_alarm.skill_check_low (expand)</title>
<path fill="none" stroke="black" d="M502.97,-576.85C549.08,-566.54 609.11,-553.12 657.69,-542.25"/>
<polygon fill="black" stroke="black" points="658.57,-545.64 667.56,-540.04 657.04,-538.81 658.57,-545.64"/>
</g>
<!-- [root] provider[&quot;registry.terraform.io/hashicorp/aws&quot;] (close)&#45;&gt;[root] aws_instance.app_server (expand) -->
<g id="edge34" class="edge">
<title>[root] provider[&quot;registry.terraform.io/hashicorp/aws&quot;] (close)&#45;&gt;[root] aws_instance.app_server (expand)</title>
<path fill="none" stroke="black" d="M287.89,-579.99C223.16,-571.68 155.42,-558.86 129.77,-540 93.9,-513.62 83.77,-495.53 83.77,-451 83.77,-451 83.77,-451 83.77,-305 83.77,-264.96 90.13,-218.97 94.83,-190.45"/>
<polygon fill="black" stroke="black" points="98.31,-190.86 96.53,-180.42 91.41,-189.69 98.31,-190.86"/>
</g>
<!-- [root] provider[&quot;registry.terraform.io/hashicorp/aws&quot;] (close)&#45;&gt;[root] aws_route_table_association.private_1a (expand) -->
<g id="edge35" class="edge">
<title>[root] provider[&quot;registry.terraform.io/hashicorp/aws&quot;] (close)&#45;&gt;[root] aws_route_table_association.private_1a (expand)</title>
<path fill="none" stroke="black" d="M430.77,-575.87C430.77,-551.67 430.77,-507.21 430.77,-478.39"/>
<polygon fill="black" stroke="black" points="434.27,-478.19 430.77,-468.19 427.27,-478.19 434.27,-478.19"/>
</g>
<!-- [root] provider[&quot;registry.terraform.io/hashicorp/aws&quot;] (close)&#45;&gt;[root] aws_route_table_association.public_1a (expand) -->
<g id="edge36" class="edge">
<title>[root] provider[&quot;registry.terraform.io/hashicorp/aws&quot;] (close)&#45;&gt;[root] aws_route_table_association.public_1a (expand)</title>
<path fill="none" stroke="black" d="M457.39,-576.11C487.8,-555.05 535.92,-515.92 555.77,-468 564.4,-447.16 555.15,-422.75 544.86,-404.78"/>
<polygon fill="black" stroke="black" points="547.7,-402.7 539.48,-396.01 541.73,-406.37 547.7,-402.7"/>
</g>
<!-- [root] provider[&quot;registry.terraform.io/hashicorp/aws&quot;] (close)&#45;&gt;[root] aws_security_group.nat (expand) -->
<g id="edge37" class="edge">
<title>[root] provider[&quot;registry.terraform.io/hashicorp/aws&quot;] (close)&#45;&gt;[root] aws_security_group.nat (expand)</title>
<path fill="none" stroke="black" d="M405.68,-575.87C368.35,-550.39 298.14,-502.45 256.4,-473.96"/>
<polygon fill="black" stroke="black" points="258.18,-470.94 247.95,-468.19 254.23,-476.72 258.18,-470.94"/>
</g>
<!-- [root] provider[&quot;registry.terraform.io/hashicorp/aws&quot;] (close)&#45;&gt;[root] aws_security_group.ssh (expand) -->
<g id="edge38" class="edge">
<title>[root] provider[&quot;registry.terraform.io/hashicorp/aws&quot;] (close)&#45;&gt;[root] aws_security_group.ssh (expand)</title>
<path fill="none" stroke="black" d="M378.87,-576.41C347.67,-566.44 307.75,-553.68 274.75,-543.13"/>
<polygon fill="black" stroke="black" points="275.79,-539.79 265.2,-540.08 273.66,-546.46 275.79,-539.79"/>
</g>
<!-- [root] root -->
<g id="node30" class="node">
<title>[root] root</title>
<ellipse fill="none" stroke="black" cx="430.77" cy="-666" rx="47.39" ry="18"/>
<text text-anchor="middle" x="430.77" y="-662.3" font-family="Times,serif" font-size="14.00">[root] root</text>
</g>
<!-- [root] root&#45;&gt;[root] provider[&quot;registry.terraform.io/hashicorp/aws&quot;] (close) -->
<g id="edge42" class="edge">
<title>[root] root&#45;&gt;[root] provider[&quot;registry.terraform.io/hashicorp/aws&quot;] (close)</title>
<path fill="none" stroke="black" d="M430.77,-647.7C430.77,-639.98 430.77,-630.71 430.77,-622.11"/>
<polygon fill="black" stroke="black" points="434.27,-622.1 430.77,-612.1 427.27,-622.1 434.27,-622.1"/>
</g>
</g>
</svg>
